<svg width="99" height="104" viewBox="0 0 99 104" fill="none" xmlns="http://www.w3.org/2000/svg">
<path d="M45.1289 104C43.1289 104 41.5289 103.533 40.3289 102.6C39.2622 101.667 38.3956 100.467 37.7289 99L0.728906 6.2C0.46224 5.53333 0.328907 4.86666 0.328907 4.2C0.328907 3 0.728906 2 1.52891 1.2C2.32891 0.399995 3.32891 -8.10623e-06 4.52891 -8.10623e-06H14.1289C15.5956 -8.10623e-06 16.7289 0.399995 17.5289 1.2C18.3289 2 18.7956 2.73333 18.9289 3.4L49.5289 82.2L79.9289 3.4C80.1956 2.73333 80.6622 2 81.3289 1.2C82.1289 0.399995 83.2622 -8.10623e-06 84.7289 -8.10623e-06H94.5289C95.5956 -8.10623e-06 96.5289 0.399995 97.3289 1.2C98.2622 2 98.7289 3 98.7289 4.2C98.7289 4.86666 98.5956 5.53333 98.3289 6.2L61.1289 99C60.5956 100.467 59.7289 101.667 58.5289 102.6C57.4622 103.533 55.8622 104 53.7289 104H45.1289Z" fill="white"/>
</svg>
